HIERARCHY
ROOT hip
{
	OFFSET 0.000000 0.000000 0.000000 
	CHANNELS 6 Xposition Yposition Zposition Xrotation Zrotation Yrotation
	JOINT abdomen
	{
		OFFSET 0.000000 3.402643 0.000000 
		CHANNELS 3 Xrotation Zrotation Yrotation
		JOINT chest
		{
			OFFSET 0.000000 8.438565 -0.680529 
			CHANNELS 3 Xrotation Zrotation Yrotation
			JOINT neck
			{
				OFFSET 0.000000 10.207942 -0.272212 
				CHANNELS 3 Xrotation Zrotation Yrotation
				JOINT head
				{
					OFFSET 0.000000 3.130431 0.000000 
					CHANNELS 3 Xrotation Zrotation Yrotation
					End Site
					{
						OFFSET 0.000000 3.130435 0.000000 
					}
				}
			}
			JOINT lCollar
			{
				OFFSET 3.470700 6.669187 -0.816635 
				CHANNELS 3 Yrotation Zrotation Xrotation
				JOINT lShldr
				{
					OFFSET 3.198488 0.000000 0.000000 
					CHANNELS 3 Zrotation Yrotation Xrotation
					JOINT lForeArm
					{
						OFFSET 10.139888 0.000000 0.000000 
						CHANNELS 3 Yrotation Zrotation Xrotation
						JOINT lHand
						{
							OFFSET 8.370511 0.000000 0.000000 
							CHANNELS 3 Zrotation Yrotation Xrotation
							End Site
							{
								OFFSET 4.083176 0.000000 0.000000 
							}
						}
					}
				}
			}
			JOINT rCollar
			{
				OFFSET -3.470700 6.669187 -0.816635 
				CHANNELS 3 Yrotation Zrotation Xrotation
				JOINT rShldr
				{
					OFFSET -3.198488 0.000000 0.000000 
					CHANNELS 3 Zrotation Yrotation Xrotation
					JOINT rForeArm
					{
						OFFSET -10.139888 0.000000 0.000000 
						CHANNELS 3 Yrotation Zrotation Xrotation
						JOINT rHand
						{
							OFFSET -8.370511 0.000000 0.000000 
							CHANNELS 3 Zrotation Yrotation Xrotation
							End Site
							{
								OFFSET -4.083176 0.000000 0.000000 
							}
						}
					}
				}
			}
		}
	}
	JOINT lThigh
	{
		OFFSET 5.308129 -1.633274 1.361059 
		CHANNELS 3 Xrotation Zrotation Yrotation
		JOINT lShin
		{
			OFFSET -2.041588 -20.007561 0.000000 
			CHANNELS 3 Xrotation Zrotation Yrotation
			JOINT lFoot
			{
				OFFSET 0.000000 -19.190928 -1.224953 
				CHANNELS 3 Xrotation Yrotation Zrotation
				End Site
				{
					OFFSET 0.000000 -2.449906 4.627600 
				}
			}
		}
	}
	JOINT rThigh
	{
		OFFSET -5.308129 -1.633274 1.361059 
		CHANNELS 3 Xrotation Zrotation Yrotation
		JOINT rShin
		{
			OFFSET 2.041588 -20.007561 0.000000 
			CHANNELS 3 Xrotation Zrotation Yrotation
			JOINT rFoot
			{
				OFFSET 0.000000 -19.190928 -1.224953 
				CHANNELS 3 Xrotation Yrotation Zrotation
				End Site
				{
					OFFSET 0.000000 -2.449906 4.627600 
				}
			}
		}
	}
}
MOTION
Frames: 18
Frame Time: 0.016667
-0.740058 35.051888 -0.298038 10.656600 -10.138400 -30.472601 -22.064301 6.298430 0.053790 13.326500 1.801970 0.767640 1.341470 -1.134630 9.545310 6.293480 3.976450 5.032280 2.000000 -2.000000 0.000000 -67.061699 -36.065300 171.464996 25.234699 -0.338518 0.058346 0.072034 0.089684 -102.938004 -2.000000 2.000000 0.000000 64.891502 -39.910900 -150.636993 -110.430000 0.170534 0.109211 -0.122800 0.131411 168.087997 -65.846725 30.609304 -3.425353 76.993629 0.295183 4.310391 -15.644075 -5.010740 0.265293 6.735426 -0.384820 -7.184782 40.442062 -3.561749 -2.569637 -27.645031 -26.114649 -14.591213 
-0.768794 35.042561 -0.257472 10.708100 -10.194300 -30.491899 -22.045799 6.329760 0.053861 13.365600 1.782750 0.771311 1.342380 -1.145930 9.525630 6.303270 3.976400 5.023190 2.000000 -2.000000 0.000000 -67.061996 -36.182701 171.367996 25.166300 -0.338587 0.058198 0.071851 0.089412 -103.055000 -2.000000 2.000000 0.000000 65.087196 -39.949600 -150.794006 -110.411003 0.170574 0.109226 -0.122800 0.131411 168.087997 -65.933495 30.625374 -3.554956 77.091942 0.275476 4.308599 -15.714836 -4.887286 0.273818 6.793650 -0.286168 -7.099561 40.381397 -3.581754 -2.567638 -27.698351 -26.058809 -14.547873 
-0.795599 35.035149 -0.219500 10.748800 -10.221800 -30.484699 -22.036800 6.348240 0.047511 13.404700 1.782900 0.772526 1.314010 -1.137690 9.505630 6.293480 3.976450 5.012750 2.000000 -2.000000 0.000000 -67.052299 -36.280701 171.240997 25.068600 -0.338686 0.057987 0.071942 0.089548 -102.996002 -2.000000 2.000000 0.000000 65.214203 -39.959301 -150.862000 -110.371002 0.170655 0.109256 -0.122643 0.131301 168.156006 -65.991356 30.616716 -3.652287 77.159828 0.297022 4.311609 -15.760857 -4.742768 0.307318 6.889275 -0.218013 -7.074699 40.250523 -3.612655 -2.549784 -27.636978 -26.027061 -14.495544 
-0.817501 35.030094 -0.184652 10.769200 -10.240300 -30.511299 -22.027800 6.363300 0.032024 13.414500 1.792630 0.761851 1.294950 -1.138440 9.495380 6.273860 3.966790 5.011010 2.000000 -2.000000 0.000000 -67.052399 -36.359200 171.074997 24.902599 -0.338853 0.057628 0.072341 0.090137 -102.741997 -2.000000 2.000000 0.000000 65.263000 -39.949501 -150.852005 -110.351997 0.170696 0.109271 -0.122263 0.131033 168.322006 -66.019463 30.617132 -3.708741 77.238243 0.281867 4.304930 -15.802662 -4.602518 0.315552 6.980002 -0.193763 -7.065617 40.141544 -3.622746 -2.544544 -27.602812 -26.036947 -14.478088 
-0.832602 35.028408 -0.151819 10.798700 -10.229700 -30.553699 -22.038500 6.381020 0.023805 13.434000 1.802400 0.761253 1.304710 -1.138450 9.495640 6.264070 3.966830 5.000570 2.000000 -2.000000 0.000000 -67.062302 -36.418201 170.919006 24.707300 -0.339049 0.057205 0.072912 0.090973 -102.380997 -2.000000 2.000000 0.000000 65.302101 -39.930000 -150.862000 -110.342003 0.170716 0.109278 -0.121817 0.130717 168.518005 -66.040749 30.628193 -3.730494 77.308014 0.265582 4.327600 -15.841401 -4.476795 0.338676 7.028894 -0.200324 -7.073053 40.012569 -3.632672 -2.529610 -27.570068 -26.009892 -14.461248 
-0.838940 35.027733 -0.121833 10.846900 -10.189700 -30.623501 -22.048300 6.390930 0.050296 13.453600 1.773400 0.785017 1.335350 -1.160300 9.466800 6.273810 3.957030 4.991100 2.000000 -2.000000 0.000000 -67.091599 -36.486801 170.802002 24.560801 -0.339194 0.056887 0.073378 0.091647 -102.087997 -2.000000 2.000000 0.000000 65.380302 -39.939499 -150.949997 -110.362000 0.170676 0.109263 -0.121616 0.130574 168.606003 -66.046669 30.641623 -3.723102 77.347435 0.262987 4.332628 -15.854239 -4.326242 0.365759 7.034755 -0.232943 -7.066991 39.913807 -3.642218 -2.533698 -27.597008 -25.939268 -14.427769 
-0.836435 35.027061 -0.096417 10.884900 -10.140400 -30.719000 -22.037600 6.386920 0.095095 13.483100 1.715370 0.802899 1.346020 -1.181370 9.447150 6.283550 3.947220 4.981620 2.000000 -2.000000 0.000000 -67.121002 -36.555401 170.714005 24.463200 -0.339291 0.056676 0.073566 0.091916 -101.971001 -2.000000 2.000000 0.000000 65.458603 -39.939301 -151.048004 -110.380997 0.170635 0.109248 -0.121728 0.130653 168.557007 -66.027695 30.649956 -3.674506 77.376320 0.269289 4.325909 -15.894904 -4.176581 0.380155 7.016337 -0.303801 -7.067501 39.864296 -3.643448 -2.524904 -27.658127 -25.844847 -14.405850 
-0.827282 35.026386 -0.071568 10.902500 -10.072700 -30.826900 -22.017599 6.388920 0.128041 13.522400 1.676740 0.828379 1.326520 -1.210640 9.445960 6.283460 3.927710 4.980850 2.000000 -2.000000 0.000000 -67.121101 -36.584900 170.636002 24.404600 -0.339349 0.056548 0.073503 0.091827 -102.010002 -2.000000 2.000000 0.000000 65.458603 -39.919800 -151.057007 -110.380997 0.170635 0.109248 -0.121884 0.130764 168.488007 -65.994370 30.668734 -3.626193 77.416061 0.251430 4.329754 -15.969725 -4.054209 0.400189 6.949144 -0.435632 -7.068981 39.853378 -3.647852 -2.506445 -27.671829 -25.728584 -14.382751 
-0.814420 35.025036 -0.054152 10.948800 -9.975130 -30.914801 -22.008200 6.391490 0.107054 13.571200 1.676920 0.820042 1.276390 -1.227840 9.473450 6.263830 3.918040 4.988900 2.000000 -2.000000 0.000000 -67.072197 -36.575298 170.557999 24.346001 -0.339407 0.056421 0.073472 0.091782 -102.028999 -2.000000 2.000000 0.000000 65.341103 -39.871201 -150.929993 -110.362000 0.170676 0.109263 -0.121884 0.130764 168.488007 -65.957748 30.652779 -3.552129 77.435577 0.255040 4.331281 -16.014732 -3.972619 0.399670 6.831976 -0.548813 -7.061340 39.901920 -3.659316 -2.519796 -27.710039 -25.641994 -14.356272 
-0.799394 35.023125 -0.045309 11.004600 -9.867710 -30.961700 -22.018400 6.376160 0.038468 13.590600 1.706070 0.778001 1.225340 -1.233730 9.520630 6.234470 3.918180 5.016190 2.000000 -2.000000 0.000000 -66.993797 -36.507301 170.410995 24.287399 -0.339464 0.056293 0.073707 0.092118 -101.883003 -2.000000 2.000000 0.000000 65.145302 -39.832699 -150.695999 -110.332001 0.170737 0.109286 -0.121817 0.130717 168.518005 -66.021935 30.615503 -3.505984 77.435974 0.233610 4.324021 -16.024837 -3.925805 0.425074 6.771909 -0.671409 -7.090552 39.862690 -3.654343 -2.508645 -27.789347 -25.565256 -14.360371 
-0.782808 35.020092 -0.037024 11.050300 -9.751070 -31.035801 -22.028700 6.364260 -0.020976 13.610100 1.735220 0.745745 1.184500 -1.230630 9.558560 6.205100 3.918320 5.033720 2.000000 -2.000000 0.000000 -66.905701 -36.429600 170.216003 24.209299 -0.339541 0.056123 0.074148 0.092744 -101.609001 -2.000000 2.000000 0.000000 64.949600 -39.823399 -150.442001 -110.313004 0.170777 0.109301 -0.121884 0.130764 168.488007 -66.022636 30.608164 -3.377564 77.425095 0.260895 4.316372 -16.059797 -3.895576 0.418102 6.667442 -0.798396 -7.103070 39.852623 -3.657822 -2.509961 -27.852545 -25.490259 -14.363134 
-0.765286 35.016163 -0.021885 11.077400 -9.673430 -31.172400 -22.019199 6.363410 -0.051105 13.639400 1.745030 0.735692 1.154770 -1.229850 9.567550 6.185530 3.918410 5.032390 2.000000 -2.000000 0.000000 -66.846802 -36.361698 170.001007 24.140900 -0.339608 0.055975 0.074561 0.093323 -101.355003 -2.000000 2.000000 0.000000 64.802902 -39.862801 -150.266006 -110.322998 0.170757 0.109293 -0.122107 0.130922 168.391006 -66.006409 30.688816 -3.261693 77.484726 0.242924 4.328572 -16.172291 -3.939817 0.422533 6.624044 -0.941570 -7.074411 39.774273 -3.661733 -2.521657 -27.833340 -25.431906 -14.338234 
-0.746800 35.010658 -0.008182 11.116400 -9.652980 -31.321800 -22.010599 6.387520 -0.070214 13.659000 1.725710 0.738630 1.125500 -1.239600 9.566620 6.165900 3.908740 5.030690 2.000000 -2.000000 0.000000 -66.817299 -36.313400 169.776001 24.092100 -0.339655 0.055868 0.074768 0.093612 -101.228996 -2.000000 2.000000 0.000000 64.754097 -39.911800 -150.207993 -110.322998 0.170757 0.109293 -0.122330 0.131080 168.292999 -65.983986 30.824289 -3.143542 77.504616 0.244164 4.338055 -16.275156 -3.969010 0.392032 6.622107 -1.034345 -7.086185 39.694309 -3.676405 -2.517687 -27.756683 -25.424309 -14.273766 
-0.726406 35.004368 -0.001041 11.166500 -9.670530 -31.441099 -22.002100 6.411640 -0.090404 13.659000 1.716010 0.730036 1.106450 -1.259880 9.556030 6.156070 3.899030 5.019890 2.000000 -2.000000 0.000000 -66.817101 -36.284698 169.542007 24.043200 -0.339703 0.055762 0.074752 0.093590 -101.237999 -2.000000 2.000000 0.000000 64.754303 -39.970299 -150.237000 -110.313004 0.170777 0.109301 -0.122330 0.131080 168.292999 -66.016373 30.957966 -3.122649 77.553406 0.233125 4.326141 -16.353605 -3.978963 0.394830 6.592297 -1.080438 -7.133139 39.615009 -3.687534 -2.522126 -27.651621 -25.363123 -14.196392 
-0.705212 34.998749 0.002107 11.206100 -9.669230 -31.525801 -21.993000 6.423270 -0.115008 13.639500 1.696550 0.712270 1.087400 -1.280170 9.545450 6.156030 3.889270 5.019530 2.000000 -2.000000 0.000000 -66.797401 -36.255901 169.345993 23.994400 -0.339750 0.055656 0.074576 0.093345 -101.346001 -2.000000 2.000000 0.000000 64.813202 -40.019001 -150.324997 -110.264000 0.170879 0.109338 -0.122151 0.130954 168.371002 -66.056068 31.037069 -3.104392 77.592773 0.231902 4.333083 -16.405001 -3.968575 0.387845 6.546153 -1.151274 -7.203766 39.566875 -3.675917 -2.518319 -27.542400 -25.333448 -14.141994 
-0.684709 34.992683 0.006389 11.225000 -9.639850 -31.591801 -21.982800 6.400890 -0.146995 13.639600 1.677160 0.695089 1.077190 -1.289160 9.554760 6.155980 3.879510 5.019160 2.000000 -2.000000 0.000000 -66.719200 -36.226799 169.248001 23.965099 -0.339779 0.055592 0.074465 0.093190 -101.414001 -2.000000 2.000000 0.000000 64.920799 -40.048000 -150.442001 -110.205002 0.171001 0.109383 -0.121861 0.130748 168.498001 -66.031433 31.062853 -3.054302 77.592812 0.238238 4.337064 -16.440077 -3.940818 0.390617 6.431543 -1.244486 -7.280951 39.615318 -3.683573 -2.520622 -27.419586 -25.339130 -14.083330 
-0.665863 34.983585 0.013228 11.223700 -9.601530 -31.681999 -21.972099 6.372870 -0.165126 13.649500 1.628720 0.681711 1.067440 -1.298920 9.554340 6.155940 3.869750 5.028570 2.000000 -2.000000 0.000000 -66.601898 -36.187698 169.238998 23.955299 -0.339788 0.055570 0.074608 0.093390 -101.325996 -2.000000 2.000000 0.000000 65.077301 -40.077099 -150.569000 -110.147003 0.171122 0.109428 -0.121750 0.130669 168.546997 -65.996727 31.089460 -3.025501 77.622047 0.242063 4.339002 -16.512850 -3.929991 0.405413 6.385080 -1.361961 -7.278351 39.683750 -3.686221 -2.521107 -27.368019 -25.468639 -14.057392 
-0.649674 34.970776 0.013228 11.231000 -9.524580 -31.746700 -21.951200 6.336180 -0.179777 13.659300 1.619060 0.673395 1.057700 -1.347740 9.553200 6.155850 3.850230 5.018070 2.000000 -2.000000 0.000000 -66.504204 -36.158501 169.218994 23.974899 -0.339769 0.055613 0.074991 0.084157 -101.092003 -2.000000 2.000000 0.000000 65.214302 -40.106098 -150.695999 -110.087997 0.171244 0.109473 -0.121906 0.130780 168.479004 -65.963173 31.084024 -3.009606 77.651283 0.231760 4.329516 -16.587940 -3.900928 0.407630 6.309652 -1.461446 -7.235775 39.656925 -3.662686 -2.532486 -27.184797 -25.657675 -14.098655 
